<?xml version="1.0" standalone="no"?>
<!DOCTYPE svg PUBLIC "-//W3C//DTD SVG 20010904//EN"
 "http://www.w3.org/TR/2001/REC-SVG-20010904/DTD/svg10.dtd">
<svg version="1.0" xmlns="http://www.w3.org/2000/svg"
 width="1085.000000pt" height="839.000000pt" viewBox="0 0 1085.000000 839.000000"
 preserveAspectRatio="xMidYMid meet">

<g transform="translate(0.000000,839.000000) scale(0.100000,-0.100000)"
fill="#000000" stroke="none">
<path d="M3664 7900 c-178 -38 -475 -190 -607 -311 -138 -126 -71 -133 136
-16 180 102 204 113 310 148 218 71 460 35 562 -83 50 -59 69 -130 68 -258 -1
-229 -21 -279 -228 -560 -148 -202 -285 -432 -345 -583 -58 -146 -74 -227 -74
-392 -1 -134 2 -156 22 -208 35 -85 126 -173 233 -226 47 -22 89 -41 94 -41 5
0 -18 20 -50 44 -87 63 -172 157 -203 223 -25 54 -27 67 -26 183 1 105 6 138
28 210 45 144 147 326 360 638 237 349 299 506 299 757 0 153 -17 207 -91 286
-31 34 -83 79 -115 100 -108 70 -275 110 -373 89z"/>
<path d="M4740 5971 c-30 -9 -78 -33 -106 -52 -28 -20 -65 -41 -82 -48 -18 -8
-32 -19 -32 -26 0 -12 38 -23 273 -80 248 -61 537 -169 797 -298 208 -105 273
-148 544 -370 108 -89 224 -206 266 -267 98 -146 182 -335 202 -455 6 -38 15
-74 19 -78 17 -20 34 73 34 188 l0 120 -52 105 c-78 160 -145 254 -267 375
-129 129 -161 157 -276 247 -170 132 -337 227 -520 297 -47 18 -105 41 -130
50 -25 10 -159 55 -298 101 -140 46 -263 91 -275 101 -22 18 -21 18 29 19 57
0 164 -26 509 -124 333 -94 685 -215 865 -297 107 -49 286 -166 373 -244 254
-225 408 -445 543 -770 74 -180 137 -320 149 -335 7 -8 23 -35 36 -60 l24 -45
3 84 c2 73 -2 99 -33 197 -36 115 -124 333 -175 435 -56 111 -222 332 -312
415 -169 156 -268 232 -383 292 -58 31 -313 142 -560 244 -349 145 -713 252
-945 278 -52 5 -111 12 -130 14 -19 3 -60 -3 -90 -13z"/>
<path d="M5300 5255 c13 -16 79 -61 260 -176 19 -12 79 -46 134 -76 257 -141
438 -288 557 -453 32 -44 174 -283 223 -374 20 -38 52 -85 71 -105 l35 -35 0
30 c0 17 -7 53 -15 81 -21 70 -222 471 -282 563 -120 183 -272 303 -477 375
-39 14 -80 30 -91 35 -77 35 -362 142 -393 147 -35 6 -36 5 -22 -12z"/>
<path d="M3869 5100 c-279 -16 -807 -82 -1019 -126 -85 -18 -270 -71 -375
-107 -203 -70 -255 -133 -241 -290 9 -103 73 -417 113 -557 63 -223 222 -657
245 -671 7 -5 24 -9 38 -9 19 0 11 -7 -35 -31 -169 -88 -262 -199 -294 -347
-28 -132 0 -371 59 -507 5 -11 32 -76 61 -144 117 -277 313 -502 597 -686 98
-63 309 -167 402 -198 99 -33 264 -65 370 -72 l85 -6 -110 30 c-181 49 -347
124 -567 257 -379 229 -590 434 -722 701 -78 156 -91 214 -91 398 0 149 2 164
24 210 34 70 182 214 257 251 50 25 71 29 139 29 78 0 83 -1 200 -61 195 -99
399 -206 410 -214 19 -14 199 -111 333 -180 53 -27 126 -67 162 -87 36 -21
111 -64 165 -95 156 -90 148 -80 130 -165 -19 -93 -36 -297 -28 -345 8 -50 -4
-108 -22 -108 -24 0 -18 -74 14 -202 85 -339 243 -525 502 -594 96 -25 262
-23 369 4 101 27 279 97 413 164 154 76 245 110 307 111 55 2 55 2 58 -29 2
-19 -3 -38 -13 -48 -15 -15 -15 -16 5 -16 12 0 35 13 51 29 36 36 39 87 9 155
-19 42 -24 46 -48 40 -134 -29 -166 -41 -408 -147 -370 -163 -554 -187 -762
-99 -141 59 -233 154 -316 327 -51 106 -99 268 -94 322 3 36 5 32 42 -64 103
-274 271 -408 537 -430 103 -8 205 16 316 74 172 88 366 236 430 325 17 24 54
91 81 149 28 57 73 135 102 173 28 38 58 86 67 107 17 44 39 50 52 17 14 -38
30 -201 41 -408 11 -210 14 -230 35 -230 7 0 16 -11 19 -24 7 -27 75 -80 151
-119 198 -99 502 -35 720 151 96 82 143 141 228 287 152 262 191 457 206 1037
6 267 5 353 -5 414 -7 42 -17 81 -22 88 -10 14 -35 101 -62 223 -11 51 -34
126 -50 165 -15 40 -44 126 -64 190 -62 205 -73 222 -142 212 -36 -5 -44 -3
-63 21 -25 33 -26 22 -7 -59 9 -35 16 -131 19 -226 3 -140 7 -172 24 -210 22
-48 88 -130 104 -130 21 0 43 -35 66 -103 39 -119 47 -186 33 -282 -12 -84
-12 -84 -39 -79 -31 7 -107 -11 -117 -27 -3 -6 -1 -16 5 -22 27 -27 6 -30
-159 -23 -161 7 -171 7 -199 -13 -58 -42 -49 -155 23 -255 103 -146 125 -230
92 -351 -29 -109 -71 -155 -142 -155 -61 0 -79 28 -72 115 5 52 12 75 42 119
44 66 45 82 7 91 -77 17 -154 -40 -187 -137 -13 -40 -14 -57 -4 -105 19 -89
46 -135 123 -200 76 -66 188 -35 295 81 119 130 149 300 90 499 -17 59 -27 73
-71 110 -121 100 -142 124 -128 140 21 26 113 39 234 34 62 -3 132 -9 157 -14
56 -10 57 -16 59 -208 0 -77 6 -204 13 -282 23 -282 -25 -483 -165 -681 -52
-75 -156 -183 -212 -222 -114 -79 -251 -124 -376 -124 -73 0 -93 4 -142 27
-31 16 -74 48 -95 72 -60 69 -74 123 -80 317 -6 231 12 294 34 120 16 -123 28
-159 78 -233 24 -37 46 -75 50 -85 3 -10 17 -32 31 -49 l25 -30 -10 27 c-5 15
-20 44 -33 65 -60 95 -96 352 -67 480 9 41 9 57 0 68 -8 10 -8 19 -1 33 14 26
-2 80 -47 162 -55 101 -113 180 -143 196 -36 18 -120 18 -164 -1 -42 -17 -57
-50 -53 -119 l3 -51 71 3 c56 3 74 0 87 -13 20 -20 21 -33 3 -110 -22 -90 -64
-114 -136 -79 -32 17 -33 17 -27 76 4 44 2 61 -8 64 -19 7 -169 -24 -230 -48
-232 -89 -314 -154 -355 -281 -11 -36 -10 -40 11 -64 31 -33 82 -53 133 -53
90 0 176 -49 176 -100 0 -64 -111 -185 -180 -196 -24 -4 -40 -13 -43 -23 -6
-22 -147 -123 -242 -172 -93 -48 -161 -57 -251 -35 -84 21 -193 76 -246 124
-94 85 -168 217 -189 337 -18 107 -7 295 23 375 28 76 224 375 288 441 14 14
61 74 105 134 160 221 425 463 481 441 18 -7 18 -43 -2 -164 -19 -124 -48
-220 -89 -302 -51 -102 -64 -121 -196 -278 -153 -181 -187 -227 -233 -319
-101 -201 -83 -302 82 -470 59 -60 76 -71 140 -92 50 -16 98 -24 156 -25 101
-1 121 10 111 63 -10 53 -29 77 -68 84 -57 9 -198 83 -254 132 -105 92 -98
188 25 355 23 30 56 75 74 100 18 25 69 85 113 134 225 251 277 328 324 480
30 98 48 293 32 348 -21 71 -44 88 -118 88 -70 0 -115 -18 -233 -95 -78 -50
-246 -203 -349 -317 -93 -104 -271 -342 -347 -465 -31 -51 -70 -108 -85 -125
l-27 -33 -35 35 c-20 20 -84 64 -144 100 -59 35 -175 109 -258 165 -189 126
-228 151 -400 247 -245 137 -545 238 -709 238 -70 0 -73 1 -69 23 2 12 -17 81
-43 152 -92 258 -165 483 -204 625 -42 153 -100 434 -100 485 0 72 58 104 320
173 183 49 506 95 1025 147 547 55 997 42 1265 -34 36 -11 121 -34 190 -51
276 -72 407 -125 483 -198 15 -14 43 -60 63 -102 42 -88 57 -107 103 -126 52
-22 54 -20 47 41 -19 164 -120 297 -296 389 -155 81 -553 189 -856 232 -128
18 -587 26 -795 14z m3145 -1118 c29 -89 45 -262 25 -262 -4 0 -18 49 -33 108
-39 161 -33 280 8 154z m-1416 -1602 c21 -17 23 -25 17 -62 -4 -24 -16 -60
-26 -80 -11 -21 -19 -45 -19 -53 0 -9 -4 -15 -10 -13 -22 7 -170 132 -170 144
0 7 12 17 28 23 15 6 42 22 61 36 41 30 87 32 119 5z m-2 -257 c-4 -4 -11 -1
-16 7 -16 25 -11 35 7 17 9 -9 13 -20 9 -24z m-756 -83 c16 -55 13 -66 -10
-45 -21 19 -53 113 -43 128 7 12 41 -40 53 -83z m736 4 c-3 -9 -6 -20 -6 -25
0 -5 -4 -9 -9 -9 -4 0 -6 11 -3 25 2 14 9 25 14 25 6 0 7 -7 4 -16z"/>
<path d="M4195 4794 c-142 -5 -667 -61 -990 -105 -425 -58 -687 -104 -745
-132 -19 -9 -26 -21 -28 -51 l-3 -38 66 7 c58 6 131 20 345 66 95 21 508 82
795 119 154 19 541 49 730 56 204 7 390 -5 507 -32 109 -26 99 -11 -18 29
-211 71 -371 90 -659 81z"/>
<path d="M8990 4448 c-65 -34 -205 -151 -275 -231 -22 -25 -69 -71 -105 -102
-36 -31 -79 -70 -97 -87 l-32 -29 -5 23 c-31 149 -49 178 -111 178 -52 0 -95
-21 -187 -92 -120 -94 -174 -144 -209 -199 -26 -41 -30 -55 -25 -85 6 -28 3
-40 -18 -64 -42 -50 -48 -219 -10 -277 34 -53 160 -72 195 -30 10 12 18 30 19
40 0 10 16 34 35 54 19 20 35 46 35 58 0 50 -77 80 -129 49 -35 -21 -64 -12
-69 22 -3 30 70 147 102 163 80 38 159 12 183 -62 32 -96 6 -278 -59 -420 -49
-107 -63 -115 -289 -171 -218 -55 -234 -55 -285 -1 -70 75 -107 300 -69 426
17 55 17 64 4 87 -20 37 -63 51 -97 31 -36 -20 -47 -45 -72 -168 -19 -94 -20
-118 -11 -237 7 -94 15 -146 30 -178 45 -104 134 -173 208 -163 67 9 319 107
450 175 28 14 55 23 59 19 5 -4 -15 -56 -44 -115 -55 -114 -128 -281 -197
-453 -38 -92 -99 -219 -234 -477 -22 -44 -57 -91 -87 -118 -47 -44 -48 -45
-19 -39 125 26 429 302 577 525 184 276 259 506 303 930 10 91 21 174 25 186
6 15 23 24 63 33 33 7 93 35 152 71 54 33 99 60 101 60 14 0 209 136 242 169
22 22 44 41 49 41 19 0 106 134 129 198 26 73 32 174 13 215 -6 13 -29 36 -52
50 -57 37 -107 36 -187 -5z m128 -110 c7 -7 12 -37 12 -68 0 -129 -100 -256
-313 -396 -139 -93 -296 -158 -329 -138 -20 13 1 77 56 168 43 72 83 120 193
227 134 133 180 167 273 200 56 20 92 23 108 7z m-743 -339 c10 -44 -7 -57
-42 -33 -15 10 -39 22 -53 25 -17 4 -20 7 -10 11 98 34 97 34 105 -3z m-51
-696 c-10 -93 -62 -331 -91 -418 -15 -44 -49 -122 -75 -173 -73 -143 -304
-448 -315 -416 -4 11 56 144 76 168 34 43 261 528 261 559 0 7 4 17 9 22 5 6
14 28 21 50 19 65 104 264 113 265 4 0 4 -26 1 -57z"/>
<path d="M2602 2683 c-39 -4 -45 -8 -59 -41 -60 -143 95 -424 336 -609 47 -37
102 -81 122 -99 66 -58 257 -174 286 -174 6 0 24 -11 40 -24 37 -30 73 -49 81
-42 3 4 -5 14 -19 23 -13 9 -57 50 -97 92 -75 78 -170 190 -430 506 -28 34
-133 245 -127 255 20 33 133 -8 244 -88 109 -78 144 -99 298 -176 155 -77 190
-93 313 -146 201 -85 390 -148 472 -157 64 -6 68 -2 43 46 -35 68 -109 113
-585 353 -287 145 -327 161 -558 225 -223 61 -252 65 -360 56z"/>
</g>
</svg>
